<svg version="1" xmlns="http://www.w3.org/2000/svg" width="270.667" height="270.667" viewBox="0 0 203.000000 203.000000"><path d="M53.6 21.7C51 29.4 51 29.9 51 59.1v29.6L46 91l-5 2.3v21.1l.1 21.1L53 148.9l12 13.4V186h72v-25.5l6.8-21 6.8-20.9-1.8-9.1c-1.4-7.3-1.7-14.4-1.8-38 0-28.9 0-29-2.7-35.7l-2.6-6.8h-16.5l-2.1 6.2c-1.6 4.8-2.1 8.7-2.1 17.5V64h-8c-4.7 0-8.9.5-10 1.2-1.6 1-2.4 1-4 0-1.1-.7-5.3-1.2-10-1.2h-8l-.1-18.3c-.1-15.8-.4-19-2.2-24.7l-2.2-6.5-10.2-.3-10.1-.3-2.6 7.8zm20.7 4.5c1.5 5.3 1.7 9.7 1.5 28.3l-.3 22-9.2 4.8-9.3 4.8V57.7c0-23.3.3-29.2 1.6-33l1.6-4.7h12.3l1.8 6.2zm65.1 12.5c1.3 3.8 1.6 9.8 1.6 33.7 0 24.9.3 30.3 2 37.5l1.9 8.4-6.5 19.9c-3.5 10.9-6.4 20-6.4 20.3 0 .3-14.1.5-31.2.5H69.5l-11.2-12.7L47 133.6V96.9l18.6-9c19.9-9.6 18.7-9.3 24.1-4.6l2.1 1.9-2.1 6.1c-1.9 5.3-3.1 6.8-9.9 12.5-4.3 3.6-7.8 6.8-7.8 7.2 0 .4 4.3 4.6 9.5 9.5 9.3 8.5 9.6 8.7 11.6 6.9 1.9-1.7 1.9-1.8-.6-4.4-1.4-1.4-2.5-2.9-2.5-3.3 0-.4 1.9-.7 4.3-.7 4 0 4.5-.3 6-3.5 1.7-3.5 3.1-4.3 4.2-2.5.3.5 4.1 1 8.4 1h7.8l3.2-5.1 3.1-5V72.8c0-20.7.4-32.4 1.2-34.9 1.1-3.7 1.3-3.9 5.4-3.9 4.1 0 4.2.1 5.8 4.7zM96.1 70c1.6.9 1.9 2.2 1.9 7.2v6.2l-3.7-3.5c-8.7-8-9-8.1-11.2-7-2.7 1.5-2.9-.5-.3-2.5 2-1.6 10.5-1.8 13.3-.4zm22.7.6c2.1 1.4 2.2 2.1 2.2 16.6 0 18.9-.8 20.8-8.6 20.8-7.9 0-8.4-1.3-8.4-20.9 0-14.2.2-16.1 1.8-17 2.6-1.6 10.5-1.3 13 .5zm-22.4 40.1c-1.6 3-2.1 3.3-6.4 3.3-3.9 0-5.1-.4-6.3-2.4-1.5-2.3-1.4-2.5 3.6-6.8 4.3-3.7 5.7-5.8 7.7-11.4l2.5-6.9.3 10.5c.3 8.4 0 11.1-1.4 13.7z"/></svg>