<?xml version="1.0" standalone="no"?>
<!DOCTYPE svg PUBLIC "-//W3C//DTD SVG 20010904//EN"
 "http://www.w3.org/TR/2001/REC-SVG-20010904/DTD/svg10.dtd">
<svg version="1.0" xmlns="http://www.w3.org/2000/svg"
 width="203.000000pt" height="203.000000pt" viewBox="0 0 203.000000 203.000000"
 preserveAspectRatio="xMidYMid meet">
<metadata>
Created by potrace 1.11, written by Peter Selinger 2001-2013
</metadata>
<g transform="translate(0.000000,203.000000) scale(0.100000,-0.100000)"
fill="#000000" stroke="none">
<path d="M536 1813 c-26 -77 -26 -82 -26 -374 l0 -296 -50 -23 -50 -23 0 -211
1 -211 119 -134 120 -134 0 -118 0 -119 360 0 360 0 0 128 0 127 68 210 68
209 -18 91 c-14 73 -17 144 -18 380 0 289 0 290 -27 357 l-26 68 -83 0 -82 0
-21 -62 c-16 -48 -21 -87 -21 -175 l0 -113 -80 0 c-47 0 -89 -5 -100 -12 -16
-10 -24 -10 -40 0 -11 7 -53 12 -100 12 l-80 0 -1 183 c-1 158 -4 190 -22 247
l-22 65 -102 3 -101 3 -26 -78z m207 -45 c15 -53 17 -97 15 -283 l-3 -220 -92
-48 -93 -48 0 284 c0 233 3 292 16 330 l16 47 62 0 61 0 18 -62z m651 -125
c13 -38 16 -98 16 -337 0 -249 3 -303 20 -375 l19 -84 -65 -199 c-35 -109 -64
-200 -64 -203 0 -3 -141 -5 -312 -5 l-313 0 -112 127 -113 127 0 184 0 183
186 90 c199 96 187 93 241 46 l21 -19 -21 -61 c-19 -53 -31 -68 -99 -125 -43
-36 -78 -68 -78 -72 0 -4 43 -46 95 -95 93 -85 96 -87 116 -69 19 17 19 18 -6
44 -14 14 -25 29 -25 33 0 4 19 7 43 7 40 0 45 3 60 35 17 35 31 43 42 25 3
-5 41 -10 84 -10 l78 0 32 51 31 50 0 311 c0 207 4 324 12 349 11 37 13 39 54
39 41 0 42 -1 58 -47z m-433 -313 c16 -9 19 -22 19 -72 l0 -62 -37 35 c-87 80
-90 81 -112 70 -27 -15 -29 5 -3 25 20 16 105 18 133 4z m227 -6 c21 -14 22
-21 22 -166 0 -189 -8 -208 -86 -208 -79 0 -84 13 -84 209 0 142 2 161 18 170
26 16 105 13 130 -5z m-224 -401 c-16 -30 -21 -33 -64 -33 -39 0 -51 4 -63 24
-15 23 -14 25 36 68 43 37 57 58 77 114 l25 69 3 -105 c3 -84 0 -111 -14 -137z"/>
</g>
</svg>
